<svg version="1.1" id="Layer_1" xmlns="http://www.w3.org/2000/svg" xmlns:xlink="http://www.w3.org/1999/xlink" x="0px" y="0px" viewBox="45 -0.3 103 112.6" style="enable-background:new 45 -0.3 103 112.6;" xml:space="preserve">
 <style type="text/css">
  .st0{fill:#003C78;}
 </style>
 <g>
  <path class="st0" d="M113.7,23.3c-6.8,0-13.2,2-18.5,5.4L77,40.4V-0.3l-32,27v51.1c0,15.2,9.9,28.1,23.6,32.6l6.1,1.9
		c-12.5-6.2-21.1-18.9-21.1-33.5c0-20.8,17.4-37.6,38.8-37.6c20,0,36.4,14.7,38.5,33.5l-22.1,0c-1.9-7.4-8.6-12.8-16.6-12.8
		c-9.5,0-17.2,7.7-17.2,17.2c0,9.5,7.7,17.2,17.2,17.2c8.8,0,16-6.6,17-15l21.8,0c-0.5,7.6-3.3,14.6-7.7,20.3c0,0,13.5-15.8,18.2-23
		c4.2-6.5,6.5-13.2,6.5-20.9C148,38.6,132.6,23.3,113.7,23.3">
  </path>
 </g>
</svg>